<?xml version="1.0" standalone="no"?>
<!DOCTYPE svg PUBLIC "-//W3C//DTD SVG 20010904//EN"
 "http://www.w3.org/TR/2001/REC-SVG-20010904/DTD/svg10.dtd">
<svg version="1.0" xmlns="http://www.w3.org/2000/svg"
 width="1000.000000pt" height="1000.000000pt" viewBox="0 0 1000.000000 1000.000000"
 preserveAspectRatio="xMidYMid meet">
<metadata>
Created by potrace 1.14, written by Peter Selinger 2001-2017
</metadata>
<g transform="translate(0.000000,1000.000000) scale(0.100000,-0.100000)"
fill="#000000" stroke="none">
<path d="M400 5000 l0 -4600 4600 0 4600 0 0 4600 0 4600 -4600 0 -4600 0 0
-4600z m3723 4206 c64 -27 107 -93 107 -164 0 -48 -51 -205 -134 -417 -96
-243 -323 -845 -332 -879 l-7 -28 89 6 c196 14 559 27 719 27 158 -1 173 -2
215 -24 74 -38 93 -83 98 -241 3 -111 -1 -164 -28 -341 -49 -330 -147 -969
-185 -1210 -19 -121 -59 -386 -89 -590 -31 -203 -94 -620 -141 -925 -101 -648
-158 -1037 -185 -1242 -26 -198 -48 -245 -127 -268 -49 -14 -401 -35 -864 -51
l-366 -12 3 -101 c1 -56 7 -303 14 -551 12 -513 27 -854 40 -909 14 -63 -10
-133 -63 -182 -79 -76 -188 -81 -270 -13 -70 58 -67 31 -71 626 -3 296 -8 672
-12 835 l-7 297 -26 -4 c-14 -2 -262 -6 -551 -9 l-525 -6 -40 23 c-28 15 -48
37 -65 72 -40 80 -40 321 -1 830 17 220 51 684 76 1030 71 992 136 1869 170
2290 13 171 27 349 30 396 7 98 26 138 77 165 27 15 75 19 273 26 398 13 1081
38 1237 44 l146 7 40 86 c46 100 165 404 332 851 125 333 195 494 226 522 54
48 133 61 197 34z m3787 -2108 c33 -17 51 -35 68 -68 30 -58 23 -121 -25 -239
-19 -47 -59 -144 -88 -216 -29 -71 -85 -202 -125 -290 -62 -139 -130 -299
-130 -309 0 -1 165 -6 366 -10 428 -8 476 -14 601 -82 84 -46 128 -87 139
-131 13 -50 -6 -190 -51 -393 -26 -113 -89 -405 -141 -650 -52 -245 -113 -524
-135 -620 -23 -96 -58 -265 -80 -375 -40 -210 -132 -660 -169 -830 -11 -55
-27 -131 -35 -170 -25 -123 -74 -261 -108 -307 -18 -24 -51 -53 -73 -65 -45
-25 -117 -33 -534 -58 -140 -8 -357 -22 -481 -30 -125 -8 -238 -15 -251 -15
-34 0 -47 -48 -58 -213 -5 -73 -25 -271 -44 -442 -20 -170 -39 -392 -44 -492
-8 -180 -8 -183 -37 -224 -83 -118 -257 -118 -339 -1 -39 55 -44 115 -18 223
27 110 53 286 97 654 19 165 39 318 44 340 5 22 12 60 15 84 l7 44 -118 -6
c-168 -10 -500 -35 -695 -53 -174 -16 -220 -13 -278 16 -109 55 -123 146 -69
445 16 94 36 209 44 257 7 47 23 137 35 200 12 62 28 151 35 198 13 82 58 342
110 635 61 345 132 790 165 1040 12 88 34 241 50 340 16 99 32 207 35 240 14
122 66 361 88 404 15 30 35 51 61 64 45 24 72 24 586 8 173 -6 444 -13 603
-17 l287 -6 51 109 c28 59 96 216 151 347 55 132 112 265 127 295 16 31 50
107 77 170 83 197 169 257 284 199z"/>
<path d="M4060 7380 c-228 -10 -505 -23 -615 -29 -261 -15 -492 -26 -1040 -52
-247 -11 -451 -21 -452 -22 0 -1 -6 -81 -13 -177 -16 -256 -67 -991 -86 -1243
-9 -120 -15 -219 -13 -221 2 -2 524 -7 1159 -11 635 -3 1169 -8 1186 -11 l30
-4 18 117 c33 229 167 1102 211 1380 51 319 47 293 38 292 -5 -1 -195 -10
-423 -19z"/>
<path d="M2566 5238 c-412 -4 -751 -10 -753 -11 -5 -6 -73 -896 -118 -1542
-13 -198 -27 -386 -30 -417 l-6 -58 183 0 c101 0 368 5 593 11 226 5 635 11
910 12 l499 2 28 165 c28 170 55 341 132 850 120 785 146 957 151 978 l5 22
-422 -2 c-233 -1 -760 -5 -1172 -10z"/>
<path d="M5999 5618 c0 -2 -7 -32 -14 -68 -6 -36 -27 -137 -44 -225 -18 -88
-53 -261 -78 -385 -25 -124 -47 -228 -49 -231 -5 -9 -42 -200 -49 -256 l-7
-53 54 0 c30 0 151 -7 269 -15 221 -15 610 -33 1259 -60 206 -9 454 -20 550
-24 96 -5 177 -7 178 -5 8 6 253 1296 248 1301 -10 11 -2313 31 -2317 21z"/>
<path d="M5685 4018 c-3 -7 -14 -67 -24 -133 -21 -124 -41 -241 -86 -500 -24
-133 -73 -417 -105 -605 -6 -36 -18 -102 -26 -147 -21 -123 -22 -121 29 -117
23 2 195 11 382 19 187 9 408 20 490 26 83 5 236 14 340 19 201 10 569 34 796
50 74 6 165 10 202 10 60 0 67 2 67 20 0 11 32 178 71 372 39 194 82 409 95
478 13 69 38 189 56 268 36 163 37 162 -47 162 -79 0 -503 18 -810 35 -277 14
-860 38 -1233 50 -153 5 -193 3 -197 -7z"/>
</g>
</svg>
